<svg xmlns="http://www.w3.org/2000/svg" viewBox="0 0 1920 1080" width="1920" height="1080" preserveAspectRatio="xMidYMid slice">
  <defs>
    <radialGradient id="gAmber" cx="50%" cy="50%" r="50%">
      <stop offset="0%" stop-color="#DFA652" stop-opacity="0.11"></stop>
      <stop offset="100%" stop-color="#DFA652" stop-opacity="0"></stop>
    </radialGradient>
    <radialGradient id="gBlue" cx="50%" cy="50%" r="50%">
      <stop offset="0%" stop-color="#5B7FB0" stop-opacity="0.09"></stop>
      <stop offset="100%" stop-color="#5B7FB0" stop-opacity="0"></stop>
    </radialGradient>
    <radialGradient id="gPlum" cx="50%" cy="50%" r="50%">
      <stop offset="0%" stop-color="#6B5570" stop-opacity="0.08"></stop>
      <stop offset="100%" stop-color="#6B5570" stop-opacity="0"></stop>
    </radialGradient>
    <rect id="bgcard" x="-70" y="-100" width="140" height="200" rx="14" fill="none"></rect>
  </defs>

  <rect width="1920" height="1080" fill="#191C23"></rect>

  
  <circle cx="960" cy="-120" r="950" fill="url(#gAmber)"></circle>
  <circle cx="1780" cy="1120" r="750" fill="url(#gBlue)"></circle>
  <circle cx="60" cy="960" r="650" fill="url(#gPlum)"></circle>

  
  <circle cx="1480" cy="330" r="640" fill="none" stroke="#DFA652" stroke-width="2" opacity="0.05"></circle>
  <circle cx="1480" cy="330" r="760" fill="none" stroke="#F7F4EC" stroke-width="1.5" opacity="0.03"></circle>
  <circle cx="240" cy="900" r="520" fill="none" stroke="#DFA652" stroke-width="1.5" opacity="0.04"></circle>

  
  <g transform="translate(1430,560) scale(4.6)" opacity="0.05">
    <rect x="-22" y="-31" width="44" height="62" rx="7" fill="none" stroke="#DFA652" stroke-width="2" transform="rotate(90)"></rect>
    <rect x="-22" y="-31" width="44" height="62" rx="7" fill="none" stroke="#F7F4EC" stroke-width="2"></rect>
    <path d="M 0 -48 A 48 48 0 0 1 48 0" fill="none" stroke="#DFA652" stroke-width="2" stroke-linecap="round"></path>
  </g>

  
  <g stroke="#F7F4EC">
    <use href="#bgcard" transform="translate(210,190) rotate(14)" opacity="0.05" stroke-width="1.5"></use>
    <use href="#bgcard" transform="translate(540,760) rotate(90) scale(1.25)" opacity="0.04" stroke-width="1.2"></use>
    <use href="#bgcard" transform="translate(1120,170) rotate(38) scale(0.8)" opacity="0.05" stroke-width="1.8"></use>
    <use href="#bgcard" transform="translate(880,600) rotate(64) scale(0.6)" opacity="0.04" stroke-width="2"></use>
    <use href="#bgcard" transform="translate(1690,860) rotate(90) scale(0.9)" opacity="0.04" stroke-width="1.6"></use>
    <use href="#bgcard" transform="translate(120,620) rotate(50) scale(1.1)" opacity="0.035" stroke-width="1.4"></use>
  </g>
  <g stroke="#DFA652">
    <use href="#bgcard" transform="translate(370,940) rotate(26) scale(0.75)" opacity="0.06" stroke-width="1.8"></use>
    <use href="#bgcard" transform="translate(1310,930) rotate(58) scale(0.65)" opacity="0.05" stroke-width="2"></use>
    <use href="#bgcard" transform="translate(1830,300) rotate(90) scale(1.2)" opacity="0.045" stroke-width="1.3"></use>
  </g>
</svg>